<mxfile host="app.diagrams.net" agent="Mozilla/5.0 (X11; Linux x86_64) AppleWebKit/537.36 (KHTML, like Gecko) Chrome/128.0.0.0 Safari/537.36" version="24.7.17">
  <diagram name="Page-1" id="58cdce13-f638-feb5-8d6f-7d28b1aa9fa0">
    <mxGraphModel dx="2150" dy="564" grid="1" gridSize="10" guides="1" tooltips="1" connect="1" arrows="1" fold="1" page="1" pageScale="1" pageWidth="1100" pageHeight="850" background="none" math="0" shadow="0">
      <root>
        <mxCell id="0" />
        <mxCell id="1" parent="0" />
        <mxCell id="382b91b5511bd0f7-1" value="" style="ellipse;html=1;shape=startState;fillColor=#000000;strokeColor=#ff0000;rounded=1;shadow=0;comic=0;labelBackgroundColor=none;fontFamily=Verdana;fontSize=12;fontColor=#000000;align=center;direction=south;" parent="1" vertex="1">
          <mxGeometry x="-21" y="270" width="30" height="30" as="geometry" />
        </mxCell>
        <mxCell id="GDV0UaJhil46lX3DR8yS-5" value="northbound_approach AND -southbound_approach / on raised" style="edgeStyle=orthogonalEdgeStyle;rounded=0;orthogonalLoop=1;jettySize=auto;html=1;exitX=1;exitY=0.5;exitDx=0;exitDy=0;labelPosition=center;verticalLabelPosition=top;align=center;verticalAlign=bottom;" parent="1" source="382b91b5511bd0f7-6" target="GDV0UaJhil46lX3DR8yS-3" edge="1">
          <mxGeometry relative="1" as="geometry">
            <Array as="points">
              <mxPoint x="167" y="330" />
              <mxPoint x="330" y="330" />
              <mxPoint x="330" y="324" />
              <mxPoint x="515" y="324" />
              <mxPoint x="515" y="285" />
            </Array>
            <mxPoint as="offset" />
          </mxGeometry>
        </mxCell>
        <mxCell id="GDV0UaJhil46lX3DR8yS-14" value="southbound_approach AND -northbound_approach / on raised" style="edgeStyle=orthogonalEdgeStyle;rounded=0;orthogonalLoop=1;jettySize=auto;html=1;exitX=1;exitY=0.75;exitDx=0;exitDy=0;entryX=0;entryY=0.5;entryDx=0;entryDy=0;" parent="1" source="382b91b5511bd0f7-6" target="GDV0UaJhil46lX3DR8yS-11" edge="1">
          <mxGeometry relative="1" as="geometry">
            <Array as="points">
              <mxPoint x="330" y="364" />
              <mxPoint x="515" y="364" />
              <mxPoint x="515" y="405" />
            </Array>
          </mxGeometry>
        </mxCell>
        <mxCell id="oHpRK2SWG9-sSbQ4RIik-1" value="northbound_approach AND southbound_approach / on raised" style="edgeStyle=orthogonalEdgeStyle;rounded=0;orthogonalLoop=1;jettySize=auto;html=1;exitX=1;exitY=0.5;exitDx=0;exitDy=0;entryX=0;entryY=0.5;entryDx=0;entryDy=0;" parent="1" source="382b91b5511bd0f7-6" target="GDV0UaJhil46lX3DR8yS-12" edge="1">
          <mxGeometry relative="1" as="geometry" />
        </mxCell>
        <mxCell id="382b91b5511bd0f7-6" value="Idle" style="rounded=1;whiteSpace=wrap;html=1;arcSize=24;fillColor=#ffffc0;strokeColor=#ff0000;shadow=0;comic=0;labelBackgroundColor=none;fontFamily=Verdana;fontSize=12;fontColor=#000000;align=center;" parent="1" vertex="1">
          <mxGeometry x="47" y="315" width="120" height="60" as="geometry" />
        </mxCell>
        <mxCell id="2a3bc250acf0617d-9" style="edgeStyle=orthogonalEdgeStyle;html=1;labelBackgroundColor=none;endArrow=open;endSize=8;strokeColor=#ff0000;fontFamily=Verdana;fontSize=12;align=left;" parent="1" source="382b91b5511bd0f7-1" target="382b91b5511bd0f7-6" edge="1">
          <mxGeometry relative="1" as="geometry" />
        </mxCell>
        <mxCell id="GDV0UaJhil46lX3DR8yS-22" value="elapsed / on lowered" style="edgeStyle=orthogonalEdgeStyle;rounded=0;orthogonalLoop=1;jettySize=auto;html=1;exitX=1;exitY=0.5;exitDx=0;exitDy=0;entryX=0;entryY=0.5;entryDx=0;entryDy=0;" parent="1" source="GDV0UaJhil46lX3DR8yS-3" target="GDV0UaJhil46lX3DR8yS-19" edge="1">
          <mxGeometry relative="1" as="geometry">
            <Array as="points">
              <mxPoint x="820" y="264" />
              <mxPoint x="1609" y="264" />
            </Array>
          </mxGeometry>
        </mxCell>
        <mxCell id="GDV0UaJhil46lX3DR8yS-34" value="southbound_approach / on raised" style="edgeStyle=orthogonalEdgeStyle;rounded=0;orthogonalLoop=1;jettySize=auto;html=1;exitX=0.5;exitY=1;exitDx=0;exitDy=0;entryX=0;entryY=0.25;entryDx=0;entryDy=0;" parent="1" source="GDV0UaJhil46lX3DR8yS-3" target="GDV0UaJhil46lX3DR8yS-12" edge="1">
          <mxGeometry relative="1" as="geometry" />
        </mxCell>
        <mxCell id="GDV0UaJhil46lX3DR8yS-3" value="Pre-Alarm N" style="rounded=1;whiteSpace=wrap;html=1;arcSize=24;fillColor=#ffffc0;strokeColor=#ff0000;shadow=0;comic=0;labelBackgroundColor=none;fontFamily=Verdana;fontSize=12;fontColor=#000000;align=center;" parent="1" vertex="1">
          <mxGeometry x="700" y="255" width="120" height="60" as="geometry" />
        </mxCell>
        <mxCell id="GDV0UaJhil46lX3DR8yS-21" value="elapsed / on lowered" style="edgeStyle=orthogonalEdgeStyle;rounded=0;orthogonalLoop=1;jettySize=auto;html=1;exitX=1;exitY=0.5;exitDx=0;exitDy=0;entryX=0;entryY=0.5;entryDx=0;entryDy=0;" parent="1" source="GDV0UaJhil46lX3DR8yS-11" target="GDV0UaJhil46lX3DR8yS-18" edge="1">
          <mxGeometry x="0.0013" relative="1" as="geometry">
            <Array as="points">
              <mxPoint x="820" y="424" />
              <mxPoint x="1609" y="424" />
            </Array>
            <mxPoint as="offset" />
          </mxGeometry>
        </mxCell>
        <mxCell id="GDV0UaJhil46lX3DR8yS-35" value="northbound_approach / on raised" style="edgeStyle=orthogonalEdgeStyle;rounded=0;orthogonalLoop=1;jettySize=auto;html=1;exitX=0.5;exitY=0;exitDx=0;exitDy=0;entryX=0;entryY=0.75;entryDx=0;entryDy=0;" parent="1" source="GDV0UaJhil46lX3DR8yS-11" target="GDV0UaJhil46lX3DR8yS-12" edge="1">
          <mxGeometry relative="1" as="geometry" />
        </mxCell>
        <mxCell id="GDV0UaJhil46lX3DR8yS-11" value="Pre-Alarm S" style="rounded=1;whiteSpace=wrap;html=1;arcSize=24;fillColor=#ffffc0;strokeColor=#ff0000;shadow=0;comic=0;labelBackgroundColor=none;fontFamily=Verdana;fontSize=12;fontColor=#000000;align=center;" parent="1" vertex="1">
          <mxGeometry x="700" y="375" width="120" height="60" as="geometry" />
        </mxCell>
        <mxCell id="GDV0UaJhil46lX3DR8yS-20" value="elapsed / on lowered" style="edgeStyle=orthogonalEdgeStyle;rounded=0;orthogonalLoop=1;jettySize=auto;html=1;exitX=1;exitY=0.5;exitDx=0;exitDy=0;" parent="1" source="GDV0UaJhil46lX3DR8yS-12" target="GDV0UaJhil46lX3DR8yS-17" edge="1">
          <mxGeometry relative="1" as="geometry" />
        </mxCell>
        <mxCell id="GDV0UaJhil46lX3DR8yS-12" value="Pre-Alarm Both" style="rounded=1;whiteSpace=wrap;html=1;arcSize=24;fillColor=#ffffc0;strokeColor=#ff0000;shadow=0;comic=0;labelBackgroundColor=none;fontFamily=Verdana;fontSize=12;fontColor=#000000;align=center;" parent="1" vertex="1">
          <mxGeometry x="1030" y="315" width="120" height="60" as="geometry" />
        </mxCell>
        <mxCell id="GDV0UaJhil46lX3DR8yS-25" value="southbound_depart AND -northbound_depart / on lowered" style="edgeStyle=orthogonalEdgeStyle;rounded=0;orthogonalLoop=1;jettySize=auto;html=1;exitX=1;exitY=0.25;exitDx=0;exitDy=0;entryX=0.5;entryY=1;entryDx=0;entryDy=0;" parent="1" source="GDV0UaJhil46lX3DR8yS-17" target="GDV0UaJhil46lX3DR8yS-19" edge="1">
          <mxGeometry x="-0.168" y="4" relative="1" as="geometry">
            <Array as="points">
              <mxPoint x="1512" y="330" />
              <mxPoint x="1512" y="324" />
              <mxPoint x="1669" y="324" />
            </Array>
            <mxPoint as="offset" />
          </mxGeometry>
        </mxCell>
        <mxCell id="GDV0UaJhil46lX3DR8yS-26" value="northbound_depart AND -southbound_depart / on lowered" style="edgeStyle=orthogonalEdgeStyle;rounded=0;orthogonalLoop=1;jettySize=auto;html=1;exitX=1;exitY=0.75;exitDx=0;exitDy=0;entryX=0.5;entryY=0;entryDx=0;entryDy=0;" parent="1" source="GDV0UaJhil46lX3DR8yS-17" target="GDV0UaJhil46lX3DR8yS-18" edge="1">
          <mxGeometry relative="1" as="geometry">
            <Array as="points">
              <mxPoint x="1512" y="360" />
              <mxPoint x="1512" y="364" />
              <mxPoint x="1669" y="364" />
            </Array>
          </mxGeometry>
        </mxCell>
        <mxCell id="oHpRK2SWG9-sSbQ4RIik-2" value="northbound_depart AND southbound_depart / on raised" style="edgeStyle=orthogonalEdgeStyle;rounded=0;orthogonalLoop=1;jettySize=auto;html=1;exitX=1;exitY=0.5;exitDx=0;exitDy=0;entryX=0;entryY=0.5;entryDx=0;entryDy=0;" parent="1" source="GDV0UaJhil46lX3DR8yS-17" target="GDV0UaJhil46lX3DR8yS-28" edge="1">
          <mxGeometry x="0.544" relative="1" as="geometry">
            <mxPoint as="offset" />
          </mxGeometry>
        </mxCell>
        <mxCell id="GDV0UaJhil46lX3DR8yS-17" value="Closed Both" style="rounded=1;whiteSpace=wrap;html=1;arcSize=24;fillColor=#ffffc0;strokeColor=#ff0000;shadow=0;comic=0;labelBackgroundColor=none;fontFamily=Verdana;fontSize=12;fontColor=#000000;align=center;" parent="1" vertex="1">
          <mxGeometry x="1295" y="315" width="120" height="60" as="geometry" />
        </mxCell>
        <mxCell id="GDV0UaJhil46lX3DR8yS-32" value="southbound_depart AND -northbound_approach / on raised" style="edgeStyle=orthogonalEdgeStyle;rounded=0;orthogonalLoop=1;jettySize=auto;html=1;exitX=1;exitY=0.5;exitDx=0;exitDy=0;entryX=0.25;entryY=1;entryDx=0;entryDy=0;" parent="1" source="GDV0UaJhil46lX3DR8yS-18" target="GDV0UaJhil46lX3DR8yS-28" edge="1">
          <mxGeometry relative="1" as="geometry" />
        </mxCell>
        <mxCell id="GDV0UaJhil46lX3DR8yS-37" value="northbound_approach AND -southbound_depart / on lowered" style="edgeStyle=orthogonalEdgeStyle;rounded=0;orthogonalLoop=1;jettySize=auto;html=1;exitX=0;exitY=0.25;exitDx=0;exitDy=0;entryX=0.5;entryY=1;entryDx=0;entryDy=0;" parent="1" source="GDV0UaJhil46lX3DR8yS-18" target="GDV0UaJhil46lX3DR8yS-17" edge="1">
          <mxGeometry relative="1" as="geometry" />
        </mxCell>
        <mxCell id="oHpRK2SWG9-sSbQ4RIik-4" value="southbound_depart AND northbound_approach / on lowered" style="edgeStyle=orthogonalEdgeStyle;rounded=0;orthogonalLoop=1;jettySize=auto;html=1;exitX=1;exitY=0.75;exitDx=0;exitDy=0;entryX=1;entryY=0.25;entryDx=0;entryDy=0;" parent="1" source="GDV0UaJhil46lX3DR8yS-18" target="GDV0UaJhil46lX3DR8yS-19" edge="1">
          <mxGeometry x="-0.133" y="-50" relative="1" as="geometry">
            <Array as="points">
              <mxPoint x="1960" y="420" />
              <mxPoint x="1960" y="270" />
            </Array>
            <mxPoint as="offset" />
          </mxGeometry>
        </mxCell>
        <mxCell id="GDV0UaJhil46lX3DR8yS-18" value="Closed S" style="rounded=1;whiteSpace=wrap;html=1;arcSize=24;fillColor=#ffffc0;strokeColor=#ff0000;shadow=0;comic=0;labelBackgroundColor=none;fontFamily=Verdana;fontSize=12;fontColor=#000000;align=center;" parent="1" vertex="1">
          <mxGeometry x="1727" y="375" width="120" height="60" as="geometry" />
        </mxCell>
        <mxCell id="GDV0UaJhil46lX3DR8yS-31" value="northbound_depart AND -southbound_approach / on raised" style="edgeStyle=orthogonalEdgeStyle;rounded=0;orthogonalLoop=1;jettySize=auto;html=1;exitX=1;exitY=0.5;exitDx=0;exitDy=0;entryX=0.25;entryY=0;entryDx=0;entryDy=0;" parent="1" source="GDV0UaJhil46lX3DR8yS-19" target="GDV0UaJhil46lX3DR8yS-28" edge="1">
          <mxGeometry relative="1" as="geometry" />
        </mxCell>
        <mxCell id="GDV0UaJhil46lX3DR8yS-36" value="southbound_approach AND -northbound_depart / on lowered" style="edgeStyle=orthogonalEdgeStyle;rounded=0;orthogonalLoop=1;jettySize=auto;html=1;exitX=0;exitY=0.75;exitDx=0;exitDy=0;entryX=0.5;entryY=0;entryDx=0;entryDy=0;" parent="1" source="GDV0UaJhil46lX3DR8yS-19" target="GDV0UaJhil46lX3DR8yS-17" edge="1">
          <mxGeometry relative="1" as="geometry" />
        </mxCell>
        <mxCell id="oHpRK2SWG9-sSbQ4RIik-3" value="northbound_depart AND southbound_approach / on lowered" style="edgeStyle=orthogonalEdgeStyle;rounded=0;orthogonalLoop=1;jettySize=auto;html=1;exitX=1;exitY=0.75;exitDx=0;exitDy=0;entryX=1;entryY=0.25;entryDx=0;entryDy=0;" parent="1" source="GDV0UaJhil46lX3DR8yS-19" target="GDV0UaJhil46lX3DR8yS-18" edge="1">
          <mxGeometry x="-0.1923" relative="1" as="geometry">
            <Array as="points">
              <mxPoint x="1880" y="300" />
              <mxPoint x="1880" y="390" />
            </Array>
            <mxPoint as="offset" />
          </mxGeometry>
        </mxCell>
        <mxCell id="GDV0UaJhil46lX3DR8yS-19" value="Closed N" style="rounded=1;whiteSpace=wrap;html=1;arcSize=24;fillColor=#ffffc0;strokeColor=#ff0000;shadow=0;comic=0;labelBackgroundColor=none;fontFamily=Verdana;fontSize=12;fontColor=#000000;align=center;" parent="1" vertex="1">
          <mxGeometry x="1727" y="255" width="120" height="60" as="geometry" />
        </mxCell>
        <mxCell id="GDV0UaJhil46lX3DR8yS-33" value="elapsed / off raised" style="edgeStyle=orthogonalEdgeStyle;rounded=0;orthogonalLoop=1;jettySize=auto;html=1;exitX=1;exitY=0.5;exitDx=0;exitDy=0;entryX=0.5;entryY=1;entryDx=0;entryDy=0;" parent="1" source="GDV0UaJhil46lX3DR8yS-28" target="382b91b5511bd0f7-6" edge="1">
          <mxGeometry relative="1" as="geometry">
            <Array as="points">
              <mxPoint x="2443" y="345" />
              <mxPoint x="2443" y="494" />
              <mxPoint x="107" y="494" />
            </Array>
            <mxPoint x="550" y="375" as="targetPoint" />
          </mxGeometry>
        </mxCell>
        <mxCell id="GDV0UaJhil46lX3DR8yS-39" value="southbound_approach AND -northbound_approach / on rasied" style="edgeStyle=orthogonalEdgeStyle;rounded=0;orthogonalLoop=1;jettySize=auto;html=1;exitX=0.75;exitY=1;exitDx=0;exitDy=0;entryX=0.5;entryY=1;entryDx=0;entryDy=0;" parent="1" source="GDV0UaJhil46lX3DR8yS-28" target="GDV0UaJhil46lX3DR8yS-11" edge="1">
          <mxGeometry relative="1" as="geometry">
            <Array as="points">
              <mxPoint x="2405" y="470" />
              <mxPoint x="760" y="470" />
            </Array>
          </mxGeometry>
        </mxCell>
        <mxCell id="GDV0UaJhil46lX3DR8yS-40" value="northbound_approach AND -southbound_approach / on raised" style="edgeStyle=orthogonalEdgeStyle;rounded=0;orthogonalLoop=1;jettySize=auto;html=1;exitX=0.75;exitY=0;exitDx=0;exitDy=0;entryX=0.5;entryY=0;entryDx=0;entryDy=0;" parent="1" source="GDV0UaJhil46lX3DR8yS-28" target="GDV0UaJhil46lX3DR8yS-3" edge="1">
          <mxGeometry relative="1" as="geometry" />
        </mxCell>
        <mxCell id="oHpRK2SWG9-sSbQ4RIik-5" style="edgeStyle=orthogonalEdgeStyle;rounded=0;orthogonalLoop=1;jettySize=auto;html=1;exitX=0.5;exitY=1;exitDx=0;exitDy=0;entryX=0.5;entryY=1;entryDx=0;entryDy=0;" parent="1" source="GDV0UaJhil46lX3DR8yS-28" target="GDV0UaJhil46lX3DR8yS-12" edge="1">
          <mxGeometry relative="1" as="geometry">
            <Array as="points">
              <mxPoint x="2375" y="450" />
              <mxPoint x="1090" y="450" />
            </Array>
          </mxGeometry>
        </mxCell>
        <mxCell id="oHpRK2SWG9-sSbQ4RIik-6" value="northbound_approach AND southbound_approach / on raised" style="edgeLabel;html=1;align=center;verticalAlign=middle;resizable=0;points=[];" parent="oHpRK2SWG9-sSbQ4RIik-5" vertex="1" connectable="0">
          <mxGeometry x="0.0353" y="-2" relative="1" as="geometry">
            <mxPoint as="offset" />
          </mxGeometry>
        </mxCell>
        <mxCell id="GDV0UaJhil46lX3DR8yS-28" value="Post-Alarm" style="rounded=1;whiteSpace=wrap;html=1;arcSize=24;fillColor=#ffffc0;strokeColor=#ff0000;shadow=0;comic=0;labelBackgroundColor=none;fontFamily=Verdana;fontSize=12;fontColor=#000000;align=center;" parent="1" vertex="1">
          <mxGeometry x="2315" y="315" width="120" height="60" as="geometry" />
        </mxCell>
        <mxCell id="GDV0UaJhil46lX3DR8yS-38" value="Assumptions&lt;div&gt;- Alarm timer does not get reset when transitioning from pre-alarm N or pre-alarm S to pre-alarm Both&lt;/div&gt;&lt;div&gt;- Alarm timer gets reset when transitioning from post-alarm to pre-alarm N or pre-alarm S&lt;/div&gt;" style="text;html=1;align=center;verticalAlign=middle;whiteSpace=wrap;rounded=0;" parent="1" vertex="1">
          <mxGeometry x="410" y="544" width="230" height="90" as="geometry" />
        </mxCell>
      </root>
    </mxGraphModel>
  </diagram>
</mxfile>
